# xmcd
#
# Track frame offsets:
#	182
#	11417
#	21387
#	31940
#	44237
#	54192
#	66307
#	76202
#	85540
#	99682
#
# Disc length: 1447 seconds
#
# Revision: 2
# Processed by: cddbd v1.5.1PL0 Copyright (c) Steve Scherf et al.
# Submitted via: audiograbber 1.83.01
#
DISCID=7605a50a
DTITLE=Various Artist - Billboard Top Country Hits - 1965
DYEAR=1987
DGENRE=Country
TTITLE0=Buck Owens - Before You Go
TTITLE1=Roger Miller - King Of The Road
TTITLE2=Buck Owens - I've Got A Tiger By The Tail
TTITLE3=Eddy Arnold - Make The World Go Away
TTITLE4=Jim Reeves - This Is It
TTITLE5=Sonny James - Behind The Tear
TTITLE6=Del Reeves - Girl On The Billboard
TTITLE7=Buck Owens - Buckaroo
TTITLE8=Dave Dudley - Gun
TTITLE9=Sonny James - I'll Keep Holding On (Just To Your Love)
EXTD=Rhino Records Compilation 1990 R2 70686
EXTT0=
EXTT1=
EXTT2=
EXTT3=
EXTT4=
EXTT5=
EXTT6=
EXTT7=
EXTT8=
EXTT9=
PLAYORDER=
